<svg width="320" height="303" viewBox="0 0 320 303" fill="none" xmlns="http://www.w3.org/2000/svg">
<g filter="url(#filter0_d_9_1236)">
<path d="M240.545 217.669C242.845 210.735 247.989 201.731 257.184 191.414C270.694 176.314 273.062 172.622 274.8 173.746C277.191 175.396 279.971 181.043 283.933 182.104C287.896 183.165 289.013 180.816 289.013 180.816C289.013 180.816 291.04 183.813 293.353 183.203C295.522 182.569 298.709 181.117 296.594 178.668C294.48 176.22 286.2 172.636 283.078 171.851C279.957 171.066 288.822 170.109 293.582 171.72C298.342 173.331 298.197 169.655 297.089 167.369C295.982 165.083 290.868 163.836 283.022 167.627C275.175 171.418 274.234 169.018 276.547 166.582C278.859 164.145 279.002 158.689 276.533 156.605C274.064 154.521 269.803 156.221 269.328 158.252C268.83 160.419 271.299 162.504 271.378 166.591C271.445 168.006 271.523 170.267 270.859 170.721C268.347 172.564 253.252 181.929 245.273 184.715C241.366 186.051 239.626 175.796 239.626 175.796L219.809 198.869L226.974 213.933L240.545 217.669Z" fill="#2C75CD"/>
<path opacity="0.29" d="M288.115 176.316C285.193 174.299 279.161 174.169 279.161 174.169C279.161 174.169 280.842 171.068 284.882 172.563C284.041 172.287 283.344 172.034 282.624 171.918C281.208 171.549 282.137 171.277 283.952 171.008C281.396 171.298 280.676 169.356 278.385 169.829C278.385 169.829 280.709 170.063 280.056 171.363C280.056 171.363 278.928 172.867 276.968 171.286C276.968 171.286 275.13 168.039 271.722 170.861C271.722 170.861 277.222 168.798 278.663 174.51C278.663 174.51 283.201 175.664 286.256 176.859C289.433 178.215 288.581 180.747 288.581 180.747C288.581 180.747 291.182 178.357 288.115 176.316Z" fill="#6B046D"/>
<path d="M114.537 232.735C115.645 235.021 116.266 238.493 112.526 243.368C111.187 245.26 102.279 251.97 101.084 252.058C99.8885 252.146 99.9214 251.028 97.7846 248.716C95.6478 246.404 86.1735 246.561 83.2303 250.16C80.2872 253.759 77.9967 256.059 80.4547 259.125C80.4547 259.125 77.733 263.181 81.4747 265.611C85.2165 268.042 89.6879 267.78 89.6879 267.78C89.6879 267.78 89.1792 269.103 91.6032 269.634C93.8834 270.143 97.9006 268.122 97.9998 266.593C98.099 265.063 100.433 258.837 101.163 257.971C101.871 257.243 109.032 255.87 118.838 253.659C125.279 252.17 135.805 253.728 135.805 253.728C135.805 253.728 141.511 233.014 141.245 232.831C141.001 232.51 114.537 232.735 114.537 232.735Z" fill="url(#paint0_linear_9_1236)"/>
<path opacity="0.29" d="M86.9196 262.978C82.8916 265.981 80.5986 259.148 80.5986 259.148C82.3258 261.253 83.8979 262.49 84.8275 262.219C85.7351 262.084 89.6973 261.319 88.7445 258.075C88.5451 257.48 88.0579 256.84 87.3051 256.016C86.5522 255.192 84.4154 252.88 84.6256 252.493C84.8579 251.968 88.3113 252.526 88.5878 251.727C88.5878 251.727 93.8687 256.513 94.5115 259.848C95.1544 263.183 94.0253 262.861 91.8896 264.202C89.7538 265.543 89.6988 266.798 89.854 267.666C89.854 267.666 86.124 267.907 82.4378 266.048C87.9279 266.794 86.9196 262.978 86.9196 262.978Z" fill="#6B046D"/>
<path d="M175.361 44.3226C181.936 45.6647 178.429 51.8421 173.847 50.962C167.703 49.6896 168.786 42.9804 175.361 44.3226ZM148.2 44.2939C156.446 47.1703 175.194 40.7834 176.199 31.8138C177.082 22.6841 164.44 16.8506 153.794 20.6113C143.125 24.5089 138.005 40.6816 148.2 44.2939ZM239.172 175.863C224.774 142.491 187.006 129.512 166.005 112.354C144.86 95.1736 164.769 86.1644 174.252 77.7203C183.735 69.2762 176.229 62.7262 165.083 59.5223C153.936 56.3184 144.597 64.7857 144.694 55.9506C144.725 47.5263 145.123 45.0617 136.833 44.2856C126.65 43.3446 120.211 53.9659 127.672 57.1369C135.133 60.3079 144.02 57.3871 143.723 67.4545C143.427 77.5218 115.714 82.7427 124.75 98.1094C133.786 113.476 157.924 107.538 164.092 119.632C170.26 131.726 164.818 141.665 155.566 147.758C146.315 153.852 134.762 161.4 127.88 169.28C123.144 174.838 121.497 182.299 120.834 186.406C120.524 188.323 119.396 189.827 117.614 190.804C97.2075 201.981 104.12 225.013 123.373 242.028C124.026 242.555 124.679 243.082 125.188 243.586C134.787 252.721 142.795 275.368 144.035 276.832C145.397 278.457 151.783 278.224 154.074 277.75C156.365 277.277 161.189 267.519 162.195 265.855C163.058 264.168 171.757 263.324 176.594 263.543C181.431 263.762 196.312 283.163 197.718 284.513C199.124 285.864 206.617 286.09 209.329 284.842C211.896 283.57 215.687 262.828 216.217 257.715C216.747 252.603 220.376 248.412 223.541 245.27C242.916 226.762 248.531 197.463 239.172 175.863Z" fill="url(#paint1_linear_9_1236)"/>
<g opacity="0.63">
<path d="M147.744 38.8819C150.968 47.2695 169.946 34.8789 166.524 27.7236C163.124 20.4314 141.342 21.833 147.744 38.8819Z" fill="#84D2FE"/>
<path d="M161.734 75.6999C173.279 78.2656 172.877 66.1188 166.114 65.0273C159.351 63.9357 153.908 73.8749 161.734 75.6999Z" fill="#84D2FE"/>
<path d="M154.572 75.2465C162.653 78.2366 152.732 104.031 138.409 101.297C124.108 98.4273 138.123 69.22 154.572 75.2465Z" fill="#84D2FE"/>
<path d="M194.9 140.058C203.979 149.672 172.162 164.767 161.623 158.711C151.229 152.678 173.665 117.946 194.9 140.058Z" fill="#84D2FE"/>
<path d="M201.013 149.755C202.417 143.8 219.229 144.828 217.13 156.009C215.151 167.35 199.332 156.508 201.013 149.755Z" fill="#84D2FE"/>
<path d="M150.845 165.119C162.653 160.563 167.095 172.378 181.67 165.318C196.245 158.258 213.124 158.874 225.425 175.049C237.87 191.247 238.044 220.356 226.902 233.59C215.76 246.824 177.656 260.624 146.216 239.534C114.921 218.467 126.752 174.437 150.845 165.119Z" fill="#84D2FE"/>
<path d="M135.24 249.001C144.659 251.926 165.913 262.943 160.071 268.041C154.084 273.116 144.765 274.141 138.951 263.509C132.994 252.853 130.602 247.55 135.24 249.001Z" fill="#84D2FE"/>
<path d="M189.601 268.031C199.808 276.14 204.158 277.545 208.616 267.306C213.051 257.205 209.853 257.812 200.5 258.129C192.343 258.358 176.781 257.813 189.601 268.031Z" fill="#84D2FE"/>
<path d="M122.637 224.63C127.762 226.721 123.52 215.5 122.521 205.223C121.522 194.947 117.992 195.782 111.031 201.402C104.215 207.045 107.815 218.585 122.637 224.63Z" fill="#84D2FE"/>
<path d="M125.294 228.29C127.308 226.788 136.276 233.434 130.376 234.308C124.455 235.319 122.617 230.246 125.294 228.29Z" fill="#84D2FE"/>
<path d="M128.667 52.8018C129.896 57.0745 141.164 56.7857 141.45 51.3528C141.592 45.8968 126.229 44.1196 128.667 52.8018Z" fill="#84D2FE"/>
</g>
<path d="M151.395 72.0642C152.125 69.3722 150.453 69.6644 148.273 71.2794C148.318 71.0056 148.384 70.5948 148.428 70.321C148.548 65.0018 146.179 63.2146 142.77 62.3833C143.457 63.6181 143.955 65.1034 143.867 67.4775C143.571 77.5449 115.858 82.7657 124.894 98.1324C127.219 102.02 130.507 104.517 134.193 106.377C132.355 104.956 130.872 103.171 129.455 100.976C125.391 94.1385 128.677 89.3303 133.479 85.1883C132.528 87.4231 132.794 91.2593 132.794 91.2593C134.178 92.747 140.684 85.3678 136.5 83.8496C136.235 83.6662 135.925 83.7567 135.637 83.7102C136.633 83.028 137.651 82.2089 138.647 81.5267C140.097 82.6037 149.659 78.2465 151.395 72.0642Z" fill="#84D2FE"/>
<path d="M162.451 149.01C170.241 142.822 174.378 133.655 168.631 122.612C167.18 119.709 164.523 117.875 161.512 116.406C162.553 117.276 163.406 118.397 164.092 119.632C170.26 131.726 164.818 141.665 155.566 147.758C146.315 153.852 134.762 161.4 127.88 169.28C123.144 174.838 121.497 182.299 120.834 186.407C120.524 188.323 119.396 189.827 117.614 190.804C97.2075 201.981 104.12 225.013 123.373 242.028C124.026 242.555 124.679 243.082 125.188 243.586C134.787 252.721 142.795 275.368 144.035 276.833C144.666 277.496 146.083 277.866 147.832 278.007C145.218 272.247 138.207 254.397 129.893 246.452C129.24 245.925 128.731 245.422 128.077 244.895C121.081 238.849 115.844 231.962 112.809 225.151C113.506 225.404 114.226 225.52 114.823 225.476C119.361 224.803 112.706 212.068 109.938 210.919C110.59 204.141 114.384 198.01 122.175 193.647C123.813 192.647 125.085 191.167 125.395 189.25C126.058 185.142 127.727 177.544 132.44 172.124C138.238 165.473 147.39 159.083 155.668 153.535C153.245 158.482 166.892 157.173 171.539 152.163C174.748 148.747 168.173 147.405 162.451 149.01Z" fill="#84D2FE"/>
<path d="M127.672 57.1368C128.369 57.3899 128.923 57.6197 129.62 57.8727C128.468 55.8605 129.198 53.1685 131.157 51.0963C131.932 51.7833 133.658 52.062 135.827 51.4287C140.144 50.299 139.28 48.3332 136.734 47.6414C138.117 47.3027 139.767 47.1474 141.371 47.2659C142.401 47.2916 143.264 47.4309 143.984 47.547C143.12 45.5813 141.194 44.7084 136.833 44.2856C126.628 43.4814 120.189 54.1027 127.672 57.1368Z" fill="#84D2FE"/>
<path d="M148.2 44.2938C148.488 44.3403 148.753 44.5236 149.041 44.5701C147.314 42.465 146.892 39.5872 147.523 36.5981C150.754 36.6983 158.634 31.7885 154.936 27.258C154.57 26.7775 154.183 26.434 153.773 26.2274C155.123 25.1809 156.617 24.1576 158.333 23.5916C163.335 21.8702 168.603 22.1585 172.909 23.8369C168.691 19.7844 160.7 18.0731 153.794 20.6112C143.125 24.5089 138.005 40.6816 148.2 44.2938Z" fill="#84D2FE"/>
<path d="M121.897 228.303C124.686 227.489 126.867 231.353 123.978 231.87C121.112 232.251 119.108 229.117 121.897 228.303Z" fill="#84D2FE"/>
<path d="M164.189 28.4704C169.148 28.8493 170.962 24.9274 164.387 25.4117C157.835 25.7591 160.26 28.1172 164.189 28.4704Z" fill="#84D2FE"/>
<path d="M131.5 53.54C134.057 53.2502 135.685 56.8847 133.029 56.8775C130.395 56.7333 129.254 53.7394 131.5 53.54Z" fill="#84D2FE"/>
<path d="M154.781 67.5532C159.042 67.679 162.129 65.9296 157.425 64.8893C152.865 63.8723 153.176 67.4347 154.781 67.5532Z" fill="#84D2FE"/>
<path d="M138.351 93.4206C144.859 93.347 154.803 108.579 144.232 105.468C133.805 102.38 133.492 93.3388 138.351 93.4206Z" fill="#84D2FE"/>
<path d="M177.968 146.176C177.615 150.193 187.773 143.965 183.102 141.807C178.431 139.648 178.232 142.706 177.968 146.176Z" fill="#84D2FE"/>
<path d="M123.494 242.188C126.229 244.456 128.443 247.202 128.443 247.202C136.648 257.658 143.061 275.551 144.157 276.993C145.519 278.617 151.905 278.384 154.196 277.91C156.487 277.437 161.31 267.679 162.317 266.015C163.18 264.328 171.879 263.484 176.716 263.703C181.553 263.922 196.434 283.323 197.84 284.673C199.246 286.024 206.739 286.25 209.451 285.002C212.018 283.731 215.809 262.988 216.339 257.876C216.703 254.703 218.196 251.853 220.055 249.484C220.221 249.371 221.306 248.141 225.765 243.381L231.275 236.684C234.019 232.491 235.844 229.414 236.939 227.202C244.926 210.649 245.961 191.429 239.294 176.023C224.896 142.651 187.128 129.672 166.127 112.514C144.982 95.3337 164.891 86.3245 174.374 77.8804C183.857 69.4363 176.351 62.8863 165.205 59.6824C154.058 56.4784 144.719 64.9458 144.816 56.1107C144.847 47.6864 145.245 45.2218 136.954 44.4457C126.771 43.5046 120.333 54.126 127.794 57.297C135.254 60.468 144.141 57.5472 143.845 67.6146C143.549 77.6819 115.836 82.9028 124.872 98.2695C133.908 113.636 158.046 107.698 164.214 119.792C170.382 131.886 164.939 141.825 155.688 147.918C146.437 154.012 134.884 161.56 128.001 169.44C123.266 174.998 121.619 182.459 120.956 186.567C120.646 188.483 119.518 189.987 117.736 190.964C102.674 199.21 102.512 213.935 111.194 227.84C111.194 227.84 115.124 233.673 117.771 236.488C120.417 239.303 123.494 242.188 123.494 242.188Z" fill="url(#paint2_linear_9_1236)"/>
<path opacity="0.44" d="M218.993 250.577C218.827 250.691 218.805 250.828 218.783 250.965C218.573 251.352 218.196 251.854 217.986 252.241C217.964 252.378 217.964 252.378 217.798 252.492C217.588 252.879 217.378 253.267 217.145 253.791C217.123 253.928 217.101 254.065 216.957 254.042C216.725 254.566 216.637 255.114 216.404 255.638C216.382 255.775 216.36 255.912 216.338 256.049C216.25 256.597 216.161 257.145 216.073 257.692C215.543 262.805 211.896 283.57 209.185 284.819C206.617 286.09 198.98 285.841 197.574 284.49C197.452 284.33 197.065 283.987 196.7 283.506C196.71 282.524 198.758 281.731 202.676 283.066C208.709 285.023 207.11 267.485 201.652 261.968C196.194 256.451 175.199 261.21 179.893 265.059C178.565 264.142 177.336 263.522 176.45 263.52C171.614 263.301 162.914 264.145 162.051 265.832C161.188 267.519 156.222 277.254 153.931 277.727C151.64 278.2 145.253 278.434 143.891 276.809C142.595 272.947 148.285 276.114 151.207 276.304C154.129 276.495 155.631 263.531 150.716 259.226C145.8 254.92 128.077 244.895 130.68 249.811C132.352 253.171 133.603 255.48 134.312 256.578C132.496 253.194 128.056 246.858 127.912 246.835C125.554 244.066 125.41 244.043 122.819 241.798C120.229 239.554 118.8 238.34 115.59 234.45C114.372 232.849 109.865 225.097 114.792 232.074C119.697 239.187 140.2 256.686 176.46 257.059C204.916 257.296 242.075 228.312 225.775 199.41C222.564 193.694 219.963 196.084 219.065 189.757C214.795 158.582 225.128 140.301 163.66 119.562C163.66 119.562 163.051 116.935 157.483 113.929C151.505 110.716 140.193 109.453 133.883 106.467C160.184 115.489 159.44 106.378 151.655 93.3201C143.871 80.2627 146.935 73.1708 162.386 72.5739C177.837 71.9769 169.067 58.62 156.838 62.1252C144.465 65.6072 144.71 71.4068 136.919 75.7689C140.449 73.1074 143.093 70.4435 143.292 67.3848C143.555 60.2625 139.095 59.5425 133.771 58.6832C138.12 58.2613 127.691 46.0414 133.435 44.2992C134.342 44.1647 135.372 44.1903 136.401 44.216C137.264 44.3553 137.984 44.4714 138.725 44.4506C144.603 45.5397 144.305 48.3014 144.263 55.881C144.165 64.716 153.505 56.2487 164.651 59.4526C175.798 62.6565 183.182 69.0464 173.821 77.6507C164.459 86.2549 144.572 95.1272 165.573 112.285C186.718 129.465 224.464 142.582 238.74 175.793C239.283 177.005 239.682 178.193 240.058 179.518C240.158 179.815 240.236 180.249 240.479 180.57C240.756 181.598 241.055 182.489 241.332 183.517C241.432 183.814 241.532 184.111 241.609 184.545C241.864 185.71 242.097 187.012 242.33 188.314C242.407 188.748 242.485 189.182 242.563 189.616C242.718 190.484 242.729 191.329 242.884 192.197C242.94 192.768 242.995 193.339 243.051 193.91C243.062 194.754 243.073 195.599 243.085 196.444C243.074 197.426 243.063 198.407 243.03 199.526C243.086 200.097 242.975 200.781 243.031 201.352C243.042 202.197 242.909 203.019 242.799 203.703C242.733 204.114 242.666 204.525 242.578 205.072C242.258 207.971 241.772 210.983 240.998 213.949C240.975 214.086 240.953 214.223 240.909 214.497C239.77 218.809 238.2 223.051 236.22 227.086C236.22 227.086 233.587 232.421 230.323 237.093C227.303 242.084 221.626 247.069 218.993 250.577ZM173.847 50.962C178.551 52.0023 181.936 45.6647 175.361 44.3226C168.786 42.9804 167.703 49.6896 173.847 50.962ZM148.2 44.2939C156.446 47.1703 175.194 40.7834 176.199 31.8138C176.519 28.9152 175.312 26.3321 173.297 24.1805C166.135 20.0743 174.537 25.6451 173.819 32.8347C173.246 40.0475 165.996 40.1418 158.479 34.5735C151.106 29.0284 141.699 32.4272 143.074 38.5495C143.151 38.9835 143.251 39.2805 143.328 39.7145C143.328 39.7145 143.328 39.7145 143.306 39.8514C144.192 41.6803 145.698 43.3282 148.2 44.2939Z" fill="url(#paint3_linear_9_1236)"/>
<path d="M155.623 153.809C173.077 149.039 181.232 141.505 174.754 131.327C168.276 121.15 170.402 124.444 169.818 130.812C169.012 140.375 163.845 145.863 157.581 149.91C151.174 153.933 146.205 156.363 155.623 153.809Z" fill="#E6F1FF"/>
<path d="M175.262 128.178C172.848 124.838 181.992 128.562 184.483 130.509C186.973 132.457 181.961 138.813 179.271 134.445C176.436 130.053 175.262 128.178 175.262 128.178Z" fill="#E6F1FF"/>
<path d="M133.445 80.8277C124.415 89.2045 123.045 95.8673 129.521 100.565C135.997 105.263 134.501 97.1543 133.89 90.8742C133.258 84.7311 137.793 76.7529 133.445 80.8277Z" fill="#E6F1FF"/>
<path d="M126.42 53.0012C130.836 52.1685 131.876 51.2125 130.381 48.5829C129.008 46.1135 124.749 53.2934 126.42 53.0012Z" fill="#E6F1FF"/>
<path d="M148.029 27.9696C150 32.2215 156.331 29.5905 158.676 24.2089C161.021 18.8274 155.52 20.8899 152.167 22.456C150.098 23.3864 147.287 26.164 148.029 27.9696Z" fill="#E6F1FF"/>
<path d="M108.143 201.919C106.606 206.869 118.857 203.227 119.165 197.657C119.474 192.088 110.321 194.825 108.143 201.919Z" fill="#E6F1FF"/>
<path opacity="0.46" d="M195.164 213.435C196.39 204.923 211.231 199.872 209.307 206.305C207.239 212.715 193.938 221.948 195.164 213.435Z" fill="#84D2FE"/>
<path opacity="0.46" d="M114.639 197.348C109.66 204.412 117.09 217.834 120.121 211.86C123.008 205.864 119.617 190.284 114.639 197.348Z" fill="#84D2FE"/>
<path opacity="0.6" d="M240.911 180.639C244.713 200.078 229.171 233.254 235.789 228.843C235.789 228.843 239.661 223.146 242.402 209.821C245.309 196.381 240.911 180.639 240.911 180.639Z" fill="#84D2FE"/>
<path opacity="0.46" d="M196.106 219.488C204.429 217.319 204.796 223.279 199.484 225.091C194.194 226.766 189.001 221.432 196.106 219.488Z" fill="#84D2FE"/>
<path opacity="0.46" d="M209.752 212.699C208.633 209.568 210.647 208.067 214.687 207.736C218.705 207.541 210.671 215.236 209.752 212.699Z" fill="#84D2FE"/>
<path d="M161.573 174.577C162.448 179.214 169.688 181.928 172.575 177.758C175.463 173.588 167.703 169.526 164.205 169.242C160.874 168.845 161.162 172.544 161.573 174.577Z" fill="#21699C"/>
<path d="M153.382 175.925C158.539 173.245 159.257 167.882 153.69 168.529C148.123 169.176 146.187 171.111 147.449 174.265C148.568 177.396 151.767 176.788 153.382 175.925Z" fill="#21699C"/>
<path d="M142.987 209.229C145.456 209.487 148.734 216.619 153.427 216.814C158.12 217.01 161.904 211.86 169.275 211.926C176.646 211.992 182.848 222.967 178.146 232.886C173.423 242.941 163.872 246.317 151.33 238.954C138.81 231.454 138.076 219.535 139.093 215.063C140.11 210.591 141.382 209.11 142.987 209.229Z" fill="#3A7AAF"/>
<path d="M160.515 235.098C158.058 235.685 151.108 236.67 153.774 232.043C156.44 227.416 163.268 222.617 171.724 223.28C176.395 223.612 178.642 225.239 179.761 226.544C180.113 218.873 175.019 212.01 169.275 211.926C161.904 211.86 158.12 217.01 153.427 216.814C148.734 216.619 145.456 209.487 142.987 209.229C141.404 208.973 140.11 210.591 139.093 215.063C138.22 219.558 138.954 231.477 151.33 238.954C154.031 240.514 156.654 241.64 159.056 242.308C159.875 240.895 162.662 234.602 160.515 235.098Z" fill="#14537A"/>
<path opacity="0.33" d="M159.608 235.232C159.918 235.142 160.227 235.051 160.515 235.098C162.662 234.601 159.875 240.895 159.2 242.331C158.625 242.239 158.071 242.009 157.374 241.756C167.015 245.138 174.286 241.254 178.146 232.886C179.075 230.788 179.595 228.484 179.783 226.407C178.786 225.262 176.805 223.819 173.041 223.352C178.941 224.304 169.07 232.404 159.608 235.232Z" fill="url(#paint4_linear_9_1236)"/>
<path opacity="0.17" d="M208.209 199.385C211.83 203.481 216.799 201.052 209.559 194.685C202.34 188.182 208.209 199.385 208.209 199.385Z" fill="url(#paint5_linear_9_1236)"/>
<path opacity="0.17" d="M121.742 189.925C118.378 190.646 121 186.293 124.01 185.936C127.043 185.442 121.742 189.925 121.742 189.925Z" fill="url(#paint6_linear_9_1236)"/>
<path d="M171.51 207.229C171.51 207.229 177.883 198.845 190.09 195.477C202.419 192.269 208.21 199.385 208.21 199.385C208.21 199.385 209.305 199 209.648 197.791C209.991 196.582 210.079 194.208 208.407 192.673C206.879 191.162 199.705 184.385 189.468 186.526C179.208 188.804 170.712 203.026 169.893 204.44C169.074 205.853 171.51 207.229 171.51 207.229Z" fill="#14537A"/>
<path d="M140.651 204.497C140.651 204.497 137.094 190.857 121.742 189.925C121.742 189.925 121.067 189.535 121.83 187.551C122.737 185.59 126.267 182.928 131.249 184.997C138.178 187.801 141.69 199.888 141.956 201.897C142.388 203.794 140.651 204.497 140.651 204.497Z" fill="#14537A"/>
<path d="M82.5598 266.208C82.5598 266.208 83.048 270.502 87.0323 269.599C91.0166 268.697 85.2604 265.942 85.2604 265.942L82.5598 266.208Z" fill="#58B0E9"/>
<path d="M103.965 263.481L98.628 256.298C98.628 256.298 95.4368 243.139 95.702 241.496C95.9671 239.853 98.6785 238.605 98.6785 238.605L91.5055 235.48L84.3565 239.524C86.4152 239.576 87.1352 241.518 84.746 247.173C84.4916 247.835 84.2593 248.359 84.005 249.021C83.9608 249.295 83.9166 249.568 83.5625 249.933C83.5183 250.207 83.3523 250.32 83.3081 250.594C82.9987 252.511 87.1279 255.285 89.0432 257.139C91.0582 259.291 90.4173 263.262 86.9197 262.978C86.9197 262.978 87.4069 263.619 87.3961 264.6C87.485 265.879 86.9099 267.613 84.7957 266.99C86.7115 270.671 88.3056 271.772 88.8812 271.864C89.1469 272.048 98.3329 270.018 103.965 263.481Z" fill="url(#paint7_linear_9_1236)"/>
<path d="M113.755 204.651C116.788 205.984 120.242 206.541 118.972 217.154C117.702 227.766 115.655 230.386 112.49 231.702C109.325 233.017 106.679 232.028 106.679 232.028L113.755 204.651Z" fill="url(#paint8_linear_9_1236)"/>
<path d="M66.109 213.539C66.9129 198.496 71.9461 188.35 82.5824 187.398C93.2187 186.445 109.17 192.813 112.625 200.676C116.081 208.539 113.552 230.609 106.846 235.568C99.9961 240.503 82.8292 239.84 76.6639 238.704C70.4765 237.705 65.4706 226.642 66.109 213.539Z" fill="url(#paint9_linear_9_1236)"/>
<path d="M51.9106 180.761C51.9106 180.761 71.9805 192.711 78.8113 198.871C85.6421 205.031 88.4026 221.773 80.1585 228.029C72.0583 234.308 45.6858 244.943 45.6858 244.943L51.9106 180.761Z" fill="url(#paint10_linear_9_1236)"/>
<path d="M32.7041 168.951C46.7383 167.985 53.9236 175.607 58.4865 185.757C62.8834 196.019 62.686 202.731 61.8266 217.203C60.9673 231.675 54.751 246.407 45.0675 250.604C36.8337 254.051 24.3828 257.1 14.6481 236C4.91337 214.901 7.31415 170.754 32.7041 168.951Z" fill="url(#paint11_linear_9_1236)"/>
<path opacity="0.43" d="M29.7296 179.148C50.2272 176.556 45.6981 249.441 28.9279 242.66C11.8479 235.97 9.06603 181.854 29.7296 179.148Z" fill="url(#paint12_linear_9_1236)"/>
<path opacity="0.43" d="M61.6827 217.18C62.5421 202.708 62.8834 196.019 58.3426 185.733C54.0233 175.904 47.1037 168.466 34.0654 168.75C45.7978 169.238 55.7304 185.452 55.3279 210.816C54.9798 233.097 44.8701 257.315 29.7495 252.205C35.2067 254.07 40.6628 252.281 44.9457 250.443C54.751 246.406 60.8234 231.652 61.6827 217.18Z" fill="url(#paint13_linear_9_1236)"/>
<path opacity="0.43" d="M40.1362 187.852C39.151 187.553 38.1438 187.39 37.1144 187.365C15.9077 187.033 19.3731 231.424 37.8243 233.278C38.3999 233.371 39.1414 233.351 39.7391 233.307C44.0966 220.944 44.7217 199.691 40.1362 187.852Z" fill="url(#paint14_linear_9_1236)"/>
<path opacity="0.43" d="M98.0214 223.466C93.7091 239.207 79.5418 239.169 77.0957 238.774C83.7147 239.842 100.162 240.389 106.846 235.568C113.696 230.632 116.103 208.402 112.625 200.676C109.17 192.813 93.2187 186.445 82.5825 187.398C81.6749 187.532 80.9113 187.69 80.1476 187.848C91.4144 185.732 102.61 206.927 98.0214 223.466Z" fill="url(#paint15_linear_9_1236)"/>
<path opacity="0.43" d="M43.0214 215.713L43.0434 215.576C44.3114 197.658 40.4321 177.785 29.5856 179.125C21.4397 180.199 16.8711 189.295 15.5348 200.319C14.8676 229.152 41.4327 234.704 43.0214 215.713Z" fill="url(#paint16_linear_9_1236)"/>
<path opacity="0.43" d="M95.702 241.496C95.9672 239.853 98.6786 238.605 98.6786 238.605C98.9885 238.514 99.2762 238.561 99.4422 238.447C99.7521 238.356 99.896 238.38 100.206 238.289C100.66 238.222 100.97 238.131 101.445 237.927C101.611 237.814 101.899 237.86 102.065 237.746C102.519 237.679 102.851 237.452 103.161 237.361C103.327 237.247 103.615 237.294 103.781 237.18C104.113 236.953 104.566 236.886 104.898 236.658C105.064 236.544 105.208 236.568 105.374 236.454C105.85 236.25 106.348 235.909 106.702 235.544C112.556 231.291 115.13 214.427 113.589 204.765C113.678 206.044 114.178 213.008 112.053 213.368C109.64 213.681 99.1239 207.488 98.9044 214.337C98.6849 221.185 88.6488 231.226 90.8371 219.497C93.0254 207.768 87.5883 198.461 82.751 196.416C77.9136 194.371 75.5455 196.237 75.5455 196.237C75.5455 196.237 76.7301 197.13 79.4537 200.38C82.0335 203.606 86.4422 216.54 80.6089 215.177C74.7756 213.814 66.9828 210.87 66.3831 203.609C65.6395 196.324 57.9439 184.545 57.9439 184.545C62.2853 194.237 62.1788 209.533 62.1788 209.533C60.7424 218.433 56.2807 214.06 52.9644 229.119C51.8368 234.276 45.7767 253.528 33.181 252.9C36.5126 253.297 39.7332 252.552 42.5664 251.464C42.5664 251.464 42.7103 251.488 42.7324 251.351C43.0423 251.26 43.3743 251.033 43.6841 250.942C44.16 250.738 44.6138 250.671 44.9458 250.443C48.9188 248.696 52.2936 245.167 54.9377 240.677C59.5525 238.612 65.2852 236.025 70.2762 233.459C72.0368 236.271 74.262 238.036 76.5422 238.544C76.6861 238.567 76.83 238.59 76.9739 238.614C77.4055 238.683 77.8372 238.753 78.2689 238.823C78.8445 238.916 79.2762 238.985 79.7299 238.918L79.8738 238.941C80.3055 239.011 80.8811 239.104 81.3348 239.037C81.4787 239.06 81.6226 239.083 81.6226 239.083C82.0543 239.153 82.652 239.109 83.0837 239.178C83.2276 239.202 83.3714 239.225 83.6592 239.271C83.8031 239.294 83.947 239.318 83.947 239.318C85.8618 239.346 86.5818 241.288 84.5467 246.579C86.0067 243.022 92.5477 241.83 92.173 247.81C91.6544 253.768 96.1156 256.314 100.754 259.591L98.1964 256.228C98.6281 256.298 95.4368 243.139 95.702 241.496Z" fill="url(#paint17_linear_9_1236)"/>
<path opacity="0.54" d="M42.6738 198.658C42.6738 198.658 24.6357 209.796 42.2378 223.314C42.3596 223.474 44.6908 208.115 42.6738 198.658Z" fill="url(#paint18_linear_9_1236)"/>
<path d="M39.0041 176.571C39.2409 192.484 52.5812 204.05 53.8988 205.949C55.2165 207.847 55.0912 194.902 51.0484 184.275C46.8838 173.488 42.4339 171.786 39.8546 170.386C39.8546 170.386 38.9029 170.795 39.0041 176.571Z" fill="url(#paint19_linear_9_1236)"/>
<path d="M28.0125 174.235C34.4224 179.344 39.6329 169.929 37.065 169.374C34.6409 168.842 21.6027 169.126 28.0125 174.235Z" fill="#FFAE74"/>
<path opacity="0.29" d="M64.4759 191.64C77.1862 206.195 81.4465 202.668 77.1066 198.455C72.6449 194.082 56.2607 182.166 64.4759 191.64Z" fill="#7781E5"/>
<path d="M78.09 191.449C80.4718 199.561 97.8387 202.645 93.1437 195.143C88.2606 187.893 76.6829 186.446 78.09 191.449Z" fill="#FFAE74"/>
<path opacity="0.43" d="M94.3131 262.907C94.3131 262.907 99.3503 267.373 102.016 260.919L100.676 259.157L94.3131 262.907Z" fill="url(#paint20_linear_9_1236)"/>
<path d="M98.8824 255.637C94.7085 251.31 90.2951 261.275 94.7449 262.977C99.0288 264.792 103.178 260.123 98.8824 255.637Z" fill="#58B0E9"/>
</g>
<defs>
<filter id="filter0_d_9_1236" x="-3.57483" y="0" width="326.749" height="310.327" filterUnits="userSpaceOnUse" color-interpolation-filters="sRGB">
<feFlood flood-opacity="0" result="BackgroundImageFix"/>
<feColorMatrix in="SourceAlpha" type="matrix" values="0 0 0 0 0 0 0 0 0 0 0 0 0 0 0 0 0 0 127 0" result="hardAlpha"/>
<feOffset dy="4"/>
<feGaussianBlur stdDeviation="2"/>
<feComposite in2="hardAlpha" operator="out"/>
<feColorMatrix type="matrix" values="0 0 0 0 0 0 0 0 0 0 0 0 0 0 0 0 0 0 0.4 0"/>
<feBlend mode="normal" in2="BackgroundImageFix" result="effect1_dropShadow_9_1236"/>
<feBlend mode="normal" in="SourceGraphic" in2="effect1_dropShadow_9_1236" result="shape"/>
</filter>
<linearGradient id="paint0_linear_9_1236" x1="80.1721" y1="248.073" x2="139.607" y2="252.774" gradientUnits="userSpaceOnUse">
<stop offset="0.3737" stop-color="#58B0E9"/>
<stop offset="0.5256" stop-color="#4EA2E2"/>
<stop offset="0.8102" stop-color="#337ED1"/>
<stop offset="0.8756" stop-color="#2C75CD"/>
</linearGradient>
<linearGradient id="paint1_linear_9_1236" x1="88.7944" y1="71.926" x2="240.319" y2="260.095" gradientUnits="userSpaceOnUse">
<stop offset="0.0289133" stop-color="#65C1F2"/>
<stop offset="0.5162" stop-color="#65D0F2"/>
<stop offset="1" stop-color="#65E3F2"/>
</linearGradient>
<linearGradient id="paint2_linear_9_1236" x1="92.4065" y1="94.8887" x2="240.805" y2="279.175" gradientUnits="userSpaceOnUse">
<stop offset="0.2951" stop-color="white"/>
<stop offset="0.361" stop-color="#F7FAFD"/>
<stop offset="0.4625" stop-color="#E2EBF7"/>
<stop offset="0.5869" stop-color="#BED2EE"/>
<stop offset="0.7295" stop-color="#8DB0E1"/>
<stop offset="0.8853" stop-color="#4F86D0"/>
<stop offset="1" stop-color="#1D63C3"/>
</linearGradient>
<linearGradient id="paint3_linear_9_1236" x1="79.2508" y1="61.2115" x2="209.023" y2="222.366" gradientUnits="userSpaceOnUse">
<stop stop-color="white"/>
<stop offset="0.052761" stop-color="#DEE8F6"/>
<stop offset="0.1356" stop-color="#B1C9EA"/>
<stop offset="0.2243" stop-color="#89AEE0"/>
<stop offset="0.3175" stop-color="#6897D7"/>
<stop offset="0.4167" stop-color="#4C84D0"/>
<stop offset="0.5239" stop-color="#3775CA"/>
<stop offset="0.643" stop-color="#286BC6"/>
<stop offset="0.7837" stop-color="#2065C4"/>
<stop offset="1" stop-color="#1D63C3"/>
</linearGradient>
<linearGradient id="paint4_linear_9_1236" x1="158.109" y1="232.357" x2="179.187" y2="234.024" gradientUnits="userSpaceOnUse">
<stop stop-color="#0004A1"/>
<stop offset="0.0942955" stop-color="#0F13A7"/>
<stop offset="0.2757" stop-color="#3639B5"/>
<stop offset="0.5256" stop-color="#7678CC"/>
<stop offset="0.8313" stop-color="#CCCDEC"/>
<stop offset="1" stop-color="white"/>
</linearGradient>
<linearGradient id="paint5_linear_9_1236" x1="209.307" y1="201.155" x2="210.022" y2="192.918" gradientUnits="userSpaceOnUse">
<stop stop-color="#0004A1"/>
<stop offset="0.0942955" stop-color="#0F13A7"/>
<stop offset="0.2757" stop-color="#3639B5"/>
<stop offset="0.5256" stop-color="#7678CC"/>
<stop offset="0.8313" stop-color="#CCCDEC"/>
<stop offset="1" stop-color="white"/>
</linearGradient>
<linearGradient id="paint6_linear_9_1236" x1="122.32" y1="190.056" x2="122.698" y2="185.705" gradientUnits="userSpaceOnUse">
<stop stop-color="#0004A1"/>
<stop offset="0.0942955" stop-color="#0F13A7"/>
<stop offset="0.2757" stop-color="#3639B5"/>
<stop offset="0.5256" stop-color="#7678CC"/>
<stop offset="0.8313" stop-color="#CCCDEC"/>
<stop offset="1" stop-color="white"/>
</linearGradient>
<linearGradient id="paint7_linear_9_1236" x1="85.154" y1="291.758" x2="98.4367" y2="230.697" gradientUnits="userSpaceOnUse">
<stop offset="0.1167" stop-color="#774CE5"/>
<stop offset="0.4149" stop-color="#722CB0"/>
<stop offset="0.7187" stop-color="#6D0F80"/>
<stop offset="0.8699" stop-color="#6B046D"/>
</linearGradient>
<linearGradient id="paint8_linear_9_1236" x1="110.847" y1="234.587" x2="121.189" y2="187.046" gradientUnits="userSpaceOnUse">
<stop offset="0.1301" stop-color="#6B046D"/>
<stop offset="0.2813" stop-color="#6D0F80"/>
<stop offset="0.5851" stop-color="#722CB0"/>
<stop offset="0.8833" stop-color="#774CE5"/>
</linearGradient>
<linearGradient id="paint9_linear_9_1236" x1="64.5158" y1="197.742" x2="138.085" y2="254.035" gradientUnits="userSpaceOnUse">
<stop stop-color="#EFE2EB"/>
<stop offset="1" stop-color="#B69BD3"/>
</linearGradient>
<linearGradient id="paint10_linear_9_1236" x1="57.1064" y1="250.444" x2="75.3742" y2="166.467" gradientUnits="userSpaceOnUse">
<stop offset="0.1301" stop-color="#6B046D"/>
<stop offset="0.2813" stop-color="#6D0F80"/>
<stop offset="0.5851" stop-color="#722CB0"/>
<stop offset="0.8833" stop-color="#774CE5"/>
</linearGradient>
<linearGradient id="paint11_linear_9_1236" x1="4.08676" y1="188.342" x2="97.8524" y2="260.089" gradientUnits="userSpaceOnUse">
<stop stop-color="#EFE2EB"/>
<stop offset="1" stop-color="#B69BD3"/>
</linearGradient>
<linearGradient id="paint12_linear_9_1236" x1="9.10736" y1="195.712" x2="71.7767" y2="243.665" gradientUnits="userSpaceOnUse">
<stop stop-color="#E8BBD2"/>
<stop offset="0.1773" stop-color="#D789B1"/>
<stop offset="0.3723" stop-color="#C85A92"/>
<stop offset="0.5582" stop-color="#BB3579"/>
<stop offset="0.73" stop-color="#B21A67"/>
<stop offset="0.8825" stop-color="#AD0A5D"/>
<stop offset="1" stop-color="#AB0459"/>
</linearGradient>
<linearGradient id="paint13_linear_9_1236" x1="4.32891" y1="188.023" x2="98.0961" y2="259.771" gradientUnits="userSpaceOnUse">
<stop offset="0.0999156" stop-color="white"/>
<stop offset="0.2375" stop-color="#EBC4D8"/>
<stop offset="0.3884" stop-color="#D88AB2"/>
<stop offset="0.5348" stop-color="#C85A92"/>
<stop offset="0.6727" stop-color="#BB3579"/>
<stop offset="0.8" stop-color="#B21A68"/>
<stop offset="0.913" stop-color="#AD0A5D"/>
<stop offset="1" stop-color="#AB0459"/>
</linearGradient>
<linearGradient id="paint14_linear_9_1236" x1="11.6937" y1="192.332" x2="74.363" y2="240.285" gradientUnits="userSpaceOnUse">
<stop stop-color="#E8BBD2"/>
<stop offset="0.1773" stop-color="#D789B1"/>
<stop offset="0.3723" stop-color="#C85A92"/>
<stop offset="0.5582" stop-color="#BB3579"/>
<stop offset="0.73" stop-color="#B21A67"/>
<stop offset="0.8825" stop-color="#AD0A5D"/>
<stop offset="1" stop-color="#AB0459"/>
</linearGradient>
<linearGradient id="paint15_linear_9_1236" x1="64.7713" y1="197.407" x2="138.341" y2="253.701" gradientUnits="userSpaceOnUse">
<stop stop-color="#E8BBD2"/>
<stop offset="0.1773" stop-color="#D789B1"/>
<stop offset="0.3723" stop-color="#C85A92"/>
<stop offset="0.5582" stop-color="#BB3579"/>
<stop offset="0.73" stop-color="#B21A67"/>
<stop offset="0.8825" stop-color="#AD0A5D"/>
<stop offset="1" stop-color="#AB0459"/>
</linearGradient>
<linearGradient id="paint16_linear_9_1236" x1="25.4193" y1="225.485" x2="34.641" y2="183.092" gradientUnits="userSpaceOnUse">
<stop offset="0.03396" stop-color="white"/>
<stop offset="0.0365611" stop-color="#FFFEFE"/>
<stop offset="0.3147" stop-color="#E1A7C4"/>
<stop offset="0.5595" stop-color="#CA6196"/>
<stop offset="0.762" stop-color="#B92F75"/>
<stop offset="0.9148" stop-color="#AF1061"/>
<stop offset="1" stop-color="#AB0459"/>
</linearGradient>
<linearGradient id="paint17_linear_9_1236" x1="67.9682" y1="260.6" x2="83.3023" y2="190.108" gradientUnits="userSpaceOnUse">
<stop offset="0.2825" stop-color="#AB0459"/>
<stop offset="0.3428" stop-color="#AF1061"/>
<stop offset="0.4508" stop-color="#B92F75"/>
<stop offset="0.5942" stop-color="#CA6196"/>
<stop offset="0.7674" stop-color="#E1A7C4"/>
<stop offset="0.9642" stop-color="#FFFEFE"/>
<stop offset="0.966" stop-color="white"/>
</linearGradient>
<linearGradient id="paint18_linear_9_1236" x1="37.2093" y1="222.287" x2="42.3575" y2="198.62" gradientUnits="userSpaceOnUse">
<stop stop-color="#B69BD3"/>
<stop offset="1" stop-color="#EFE2EB"/>
</linearGradient>
<linearGradient id="paint19_linear_9_1236" x1="36.1153" y1="185.94" x2="57.8928" y2="190.806" gradientUnits="userSpaceOnUse">
<stop stop-color="#FFAE74"/>
<stop offset="0.0391634" stop-color="#EEA26C"/>
<stop offset="0.1944" stop-color="#B07850"/>
<stop offset="0.3481" stop-color="#7A5338"/>
<stop offset="0.4968" stop-color="#4E3524"/>
<stop offset="0.6393" stop-color="#2C1E14"/>
<stop offset="0.7739" stop-color="#140E09"/>
<stop offset="0.8975" stop-color="#050302"/>
<stop offset="1"/>
</linearGradient>
<linearGradient id="paint20_linear_9_1236" x1="97.5942" y1="264.339" x2="98.8372" y2="258.625" gradientUnits="userSpaceOnUse">
<stop offset="0.2825" stop-color="#AB0459"/>
<stop offset="0.3428" stop-color="#AF1061"/>
<stop offset="0.4508" stop-color="#B92F75"/>
<stop offset="0.5942" stop-color="#CA6196"/>
<stop offset="0.7674" stop-color="#E1A7C4"/>
<stop offset="0.9642" stop-color="#FFFEFE"/>
<stop offset="0.966" stop-color="white"/>
</linearGradient>
</defs>
</svg>
